<svg id="Logo" data-name="Camada 1" xmlns="http://www.w3.org/2000/svg" viewBox="0 0 156 156.1"><defs><style>.cls-1{fill:#dde0dc;}.cls-2{fill:#412777;}.cls-3{fill:#594797;}.cls-4{fill:#4c4b47;}</style></defs><title>Prancheta 1</title><rect class="cls-1" width="156" height="156" rx="15" ry="15"/><path class="cls-2" d="M91.7,117.6a14.4,14.4,0,0,1-16.5,11.9,14.3,14.3,0,0,1-10.9-8.6h0a16.8,16.8,0,0,0-.9-3.2c-2.7-7.5-9.1-15-11.3-17.4l-.6-.6a14.4,14.4,0,1,1,24.2-15v.4a30.8,30.8,0,0,1,1,4.1,25.9,25.9,0,0,0,8.3,13.9h.1a21.9,21.9,0,0,0,2,1.6A14.3,14.3,0,0,1,91.7,117.6Z"/><path class="cls-2" d="M60.8,67.7A14.3,14.3,0,0,1,33.4,71h0a16.8,16.8,0,0,0-.9-3.2c-2.7-7.5-9.1-15-11.3-17.4a1.7,1.7,0,0,0-.6-.6,14.4,14.4,0,1,1,24.2-15V35c0,.1,0,.1.1.2s.5,2.3.9,4.1a25.6,25.6,0,0,0,8.4,13.9h0l2.1,1.6A14.4,14.4,0,0,1,60.8,67.7Z"/><path class="cls-3" d="M76.3,92.4A14.4,14.4,0,0,1,48.9,96h0a16.8,16.8,0,0,0-.9-3.2c-2.8-7.4-9.3-14.9-11.5-17.2l-.6-.7a14.4,14.4,0,1,1,24-15.2v.2a.3.3,0,0,0,.1.2c.3.9.5,2.3,1,4A25.3,25.3,0,0,0,69.5,78h.1l2.1,1.6A14.5,14.5,0,0,1,76.3,92.4Z"/><circle class="cls-1" cx="46.5" cy="65.5" r="5.1"/><circle class="cls-1" cx="62.5" cy="90.5" r="5.1"/><circle class="cls-1" cx="31.9" cy="40.5" r="5.1"/><circle class="cls-4" cx="77.3" cy="115" r="5.1"/><path class="cls-3" d="M64.3,117.8a14.4,14.4,0,0,0,16.5,11.9,14.3,14.3,0,0,0,10.9-8.6h0a16.8,16.8,0,0,1,.9-3.2c2.7-7.5,9.1-15,11.3-17.4l.6-.6a14.4,14.4,0,1,0-24.2-15v.4a30.8,30.8,0,0,0-1,4.1,25.9,25.9,0,0,1-8.3,13.9h-.1a21.9,21.9,0,0,1-2,1.6A14.3,14.3,0,0,0,64.3,117.8Z"/><path class="cls-3" d="M95.2,67.5a14.5,14.5,0,0,0,16.5,11.9,14.6,14.6,0,0,0,10.9-8.6h0a18.1,18.1,0,0,1,.9-3.1c2.7-7.5,9.1-15,11.3-17.4l.6-.7a14.4,14.4,0,1,0-24.2-14.9v.2a.3.3,0,0,1-.1.2c-.3.9-.5,2.3-.9,4a25.5,25.5,0,0,1-8.4,14h0l-2.1,1.6A14.4,14.4,0,0,0,95.2,67.5Z"/><path class="cls-2" d="M79.7,92.2a14.4,14.4,0,0,0,16.4,12,14.1,14.1,0,0,0,11-8.4h0a18.1,18.1,0,0,1,.9-3.1c2.8-7.4,9.3-14.9,11.5-17.3l.6-.6a14.3,14.3,0,0,0-13-23.6,14.2,14.2,0,0,0-11,8.3v.3h-.1c-.3,1-.5,2.4-1,4.1a24.8,24.8,0,0,1-8.4,13.8h-.1l-2.1,1.5A14.8,14.8,0,0,0,79.7,92.2Z"/><circle class="cls-1" cx="109.5" cy="65.2" r="5.1"/><circle class="cls-1" cx="93.5" cy="90.3" r="5.1"/><circle class="cls-1" cx="124.1" cy="40.3" r="5.1"/><circle class="cls-1" cx="78.7" cy="114.8" r="5.1"/></svg>
