<svg version="1" xmlns="http://www.w3.org/2000/svg" width="1365.333" height="1365.333" viewBox="0 0 1024.000000 1024.000000"><path d="M802.7 171.1c-29 4.2-57.2 24.6-69.9 50.4-3.1 6.4-4.1 9.9-7.9 27.4-5.4 25.3-13.3 44.6-25.8 63.3-11.1 16.5-21.4 27.3-40.1 41.8-19.8 15.4-31.8 37.7-34.9 64.6-2.1 19.4-16.3 49.1-32.9 69.4-8.8 10.7-15.8 17.3-28.8 27-25.7 19.3-34.3 33.5-41.3 68-2.4 11.8-7.9 30-9.1 30-2 0-9.5-27.7-15.1-56-2.3-11.6-19.4-32.5-34.8-42.8-25-16.6-46.3-45.7-57.1-78.1-2.2-6.5-4.5-15.7-5.1-20.3-2.1-16.9-11-36.8-22.2-49.4-2.7-2.9-9.4-8.9-15-13.3-20.1-15.7-35-33.4-46.1-55-8.3-16.4-11.9-26.7-16.6-48.1-2.8-12.6-4.9-19.6-7.5-24.9-14.8-30.2-43.2-50-76.1-53-53.9-4.8-100.7 35.6-103.1 89.1-.9 18.2 1.9 31.4 10 47.4 4.2 8.3 6.7 11.7 22 29.7 36.4 42.7 61.3 83.7 70.9 116.5 5.2 17.8 10.8 27.5 25.3 43.2 10.6 11.6 28.7 34 38.2 47.5 19.3 27.2 35.4 59.4 40.3 80.5 2.2 9.6 9.3 20.5 21.7 33.4 12.4 12.9 30.2 35.5 43 54.6 17.5 26.2 30.7 53.4 35.8 73.5 3.2 13 10.4 24.4 23.1 36.5 13.7 13 27.4 20.1 48.7 25.2 13 3.1 33.5 3.1 46.1 0 31.4-7.8 57.8-32.4 65.1-60.7 9-35.1 34.2-76.1 78.7-128.3 12.8-15 18.7-24.8 22.3-36.7 8.8-29.1 24-57.7 46.9-88.1 10.5-14.1 16.3-21.1 34-41.5 12.3-14.2 17.8-23.5 21.6-36.4 5.5-18.5 7.2-23 12.7-34.3 13.5-27.9 34.6-58.3 61.8-89.2 12.2-13.9 15.4-18.5 20.5-29.2 6.6-13.8 8.3-21.9 8.4-39.8 0-13.2-.3-16.8-2.3-24-12.6-46.8-57.9-76.9-105.4-69.9zm26.6 63.3c20.7 10.1 25.1 37.6 8.8 53.7-13.1 12.9-32.5 13.4-46 1.3-18.7-16.8-12.6-48.1 11.1-56.6 7.7-2.7 18.7-2.1 26.1 1.6zm-605.4 1.3c7 3.4 12.6 9.1 16 16.2 2.2 4.7 2.6 6.9 2.6 14.1-.1 10.1-2.1 15.5-8.6 22.5s-12.6 9.8-23.1 10.3c-8 .4-9.2.2-15.1-2.5-7.3-3.5-12.8-8.7-16.5-15.8-2.4-4.4-2.7-6.2-2.7-14.5 0-8.4.3-10.1 2.8-14.7 3.7-7.2 7.7-11.4 13.6-14.7 9.7-5.2 21.3-5.6 31-.9zm511 162.8c6 3.3 11 8.7 14.3 15.4 1.9 3.8 2.3 6.3 2.3 14.1 0 11.4-2.2 16.8-9.7 24.2-6.3 6.2-13.4 8.8-23.6 8.8-6.4 0-8.7-.5-13.7-2.9-25.5-12.2-25.5-48 0-60.3 5.6-2.7 6.7-2.9 15.5-2.6 8.2.3 10.2.8 14.9 3.3zm-419.6-.5c8.4 2.6 16.4 9.6 20.4 17.8 2.4 4.9 2.8 6.9 2.8 14.2-.1 10.3-2.2 15.6-8.9 22.8-6.7 7.2-14.8 10.6-24.8 10.6-6.5 0-8.6-.5-14.2-3.3-12-5.9-18.6-16.5-18.6-30.1 0-15.8 9.7-28.5 24.9-32.6 6.6-1.8 11-1.7 18.4.6zm313.4 165c3.7 1.8 7.8 4.9 10.2 7.6 11.3 12.9 10.7 33.7-1.4 45.9-8.9 8.8-23.9 12-35.6 7.6-7.6-2.9-14.1-8.8-17.8-16.2-5.7-11.3-5-23 1.8-33.6 9.2-14.2 27.2-19 42.8-11.3zm-210.4-1.5c7 1.8 12 4.9 17.1 10.5 6.1 6.8 8.1 12.1 8.1 22 0 11.2-2.6 17-10.7 24.5-10.8 10-24.1 12-37.5 5.4-19.9-9.7-24.8-36.6-9.5-52.7 9-9.5 20.3-12.9 32.5-9.7zm113 161.9c20.7 10.1 25.1 37.4 8.8 53.7-12.8 12.9-32.5 13.4-46 1.3-18.7-16.8-12.6-48.1 11.1-56.6 7.7-2.7 18.7-2.1 26.1 1.6z"/></svg>